<?xml version="1.0" encoding="utf-8"?>
<!-- Generator: Adobe Illustrator 16.0.0, SVG Export Plug-In . SVG Version: 6.00 Build 0)  -->
<!DOCTYPE svg PUBLIC "-//W3C//DTD SVG 1.1//EN" "http://www.w3.org/Graphics/SVG/1.1/DTD/svg11.dtd">
<svg version="1.1" xmlns="http://www.w3.org/2000/svg" xmlns:xlink="http://www.w3.org/1999/xlink" x="0px" y="0px"
	 width="141.73px" height="141.73px" viewBox="0 0 141.73 141.73" enable-background="new 0 0 141.73 141.73" xml:space="preserve">
<g id="Layer_1" display="none">
	<path display="inline" fill="#EFA527" d="M45.369,15.026c0,0-25.006,6.408-34.512,21.895c-2.378,3.096-19.755,33.56-3.094,65.689
		c7.14,10.71,16.421,24.957,46.65,26.401c24.039,0.73,65.212,3.35,78.066-17.598c4.283-6.66,18.323-29.988-2.383-64.261
		C119.148,33.115,96.537,2.888,45.369,15.026z"/>
	<path display="inline" fill="none" stroke="#4D1A15" stroke-miterlimit="10" d="M69.957,101.203c0-2.103,1.782-3.885,3.884-3.885
		h1.713c2.102,0,3.884,1.782,3.884,3.885v1.896c0,2.102-1.782,3.883-3.884,3.883h-1.713c-1.028,0-2.01-0.411-2.741-1.143
		l-0.526-0.525v5.985c0,0.16-0.137,0.298-0.32,0.298c-0.16,0-0.297-0.138-0.297-0.298V101.203z M70.574,103.167
		c0,1.759,1.553,3.197,3.267,3.197h1.713c1.782,0,3.268-1.484,3.268-3.266v-1.896c0-1.783-1.485-3.268-3.268-3.268h-1.713
		c-1.782,0-3.267,1.484-3.267,3.268v1.323V103.167z"/>
	<path display="inline" fill="none" stroke="#4D1A15" stroke-miterlimit="10" d="M87.138,97.318c2.124,0,3.975,1.76,3.975,3.952
		v1.759c0,2.193-1.851,3.952-3.975,3.952h-2.536c-1.713,0-3.083-1.37-3.083-3.083c0-1.691,1.37-3.062,3.083-3.062h5.871
		l-0.092-0.365c-0.365-1.463-1.736-2.536-3.243-2.536h-4.044c-0.16,0-0.297-0.137-0.297-0.297c0-0.184,0.137-0.32,0.297-0.32h0.298
		H87.138z M87.138,106.364c1.851,0,3.335-1.553,3.335-3.335v-1.576h-5.871c-1.371,0-2.467,1.098-2.467,2.445
		c0,1.37,1.096,2.466,2.467,2.466h1.371H87.138z"/>
	<path display="inline" fill="none" stroke="#4D1A15" stroke-miterlimit="10" d="M93.239,101.203c0-2.103,1.781-3.885,3.883-3.885
		h1.714c2.102,0,3.883,1.782,3.883,3.885v1.896c0,2.102-1.781,3.883-3.883,3.883h-1.714c-1.028,0-2.01-0.411-2.74-1.143
		l-0.525-0.525v5.985c0,0.16-0.138,0.298-0.321,0.298c-0.159,0-0.296-0.138-0.296-0.298V101.203z M93.856,103.167
		c0,1.759,1.553,3.197,3.266,3.197h1.714c1.782,0,3.267-1.484,3.267-3.266v-1.896c0-1.783-1.484-3.268-3.267-3.268h-1.714
		c-1.781,0-3.266,1.484-3.266,3.268v1.323V103.167z"/>
	<path display="inline" fill="none" stroke="#4D1A15" stroke-miterlimit="10" d="M107.874,106.685c0,0.16-0.137,0.297-0.32,0.297
		c-0.159,0-0.297-0.137-0.297-0.297V94.509c0-0.159,0.138-0.297,0.297-0.297c0.184,0,0.32,0.138,0.32,0.297V106.685z"/>
	<path display="inline" fill="none" stroke="#4D1A15" stroke-miterlimit="10" d="M116.897,106.685c0,0.16-0.137,0.297-0.296,0.297
		c-0.183,0-0.32-0.137-0.32-0.297V94.829h-4.957c-0.16,0-0.297-0.137-0.297-0.32c0-0.159,0.137-0.297,0.297-0.297h10.53
		c0.161,0,0.298,0.138,0.298,0.297c0,0.184-0.137,0.32-0.298,0.32h-4.957V106.685z"/>
</g>
<g id="Layer_2">
	<path fill="#EFA527" d="M45.369,15.026c0,0-25.006,6.408-34.512,21.895c-2.378,3.096-19.755,33.56-3.094,65.689
		c7.14,10.71,16.421,24.957,46.65,26.401c24.039,0.73,65.212,3.35,78.066-17.598c4.283-6.66,18.323-29.988-2.383-64.261
		C119.148,33.115,96.537,2.888,45.369,15.026z"/>
	<rect x="51.91" y="90.05" fill="#4D1A15" width="39.834" height="23.141"/>
	<rect x="94.57" y="73.16" fill="#4D1A15" width="23.141" height="39.834"/>
</g>
</svg>
